<?xml version="1.0" encoding="UTF-8"?>
<!DOCTYPE svg PUBLIC "-//W3C//DTD SVG 1.1//EN" "http://www.w3.org/Graphics/SVG/1.1/DTD/svg11.dtd">
<svg xmlns="http://www.w3.org/2000/svg" version="1.1" width="572px" height="572px" style="shape-rendering:geometricPrecision; text-rendering:geometricPrecision; image-rendering:optimizeQuality; fill-rule:evenodd; clip-rule:evenodd" xmlns:xlink="http://www.w3.org/1999/xlink">
<g><path style="opacity:1" fill="#333333" d="M -0.5,-0.5 C 190.167,-0.5 380.833,-0.5 571.5,-0.5C 571.5,190.167 571.5,380.833 571.5,571.5C 380.833,571.5 190.167,571.5 -0.5,571.5C -0.5,380.833 -0.5,190.167 -0.5,-0.5 Z"/></g>
<g><path style="opacity:1" fill="#23cbaa" d="M 274.5,216.5 C 282.347,215.326 290.347,215.326 298.5,216.5C 316.807,239.802 335.807,262.468 355.5,284.5C 355.5,285.833 355.5,287.167 355.5,288.5C 355.5,290.167 355.5,291.833 355.5,293.5C 354.775,297.231 353.775,300.898 352.5,304.5C 352.657,303.127 352.49,301.793 352,300.5C 328.923,273.266 306.09,245.933 283.5,218.5C 280.788,216.74 277.788,216.073 274.5,216.5 Z"/></g>
<g><path style="opacity:1" fill="#a552fd" d="M 477.5,329.5 C 469.805,323.964 463.639,316.964 459,308.5C 457.045,307.547 455.378,306.213 454,304.5C 433.022,278.852 412.022,253.185 391,227.5C 390.517,226.552 390.351,225.552 390.5,224.5C 424.41,208.382 453.91,214.382 479,242.5C 493.123,263.13 496.456,285.463 489,309.5C 486.417,317.014 482.583,323.681 477.5,329.5 Z"/></g>
<g><path style="opacity:1" fill="#6a8af0" d="M 155.5,216.5 C 153.801,216.34 152.134,216.506 150.5,217C 171.682,242.513 192.849,268.013 214,293.5C 214.232,292.263 214.732,291.263 215.5,290.5C 215.5,292.167 215.5,293.833 215.5,295.5C 214.012,299.787 212.678,304.12 211.5,308.5C 185.73,278.356 160.397,247.689 135.5,216.5C 142.266,215.191 148.932,215.191 155.5,216.5 Z"/></g>
<g><path style="opacity:1" fill="#30ca9c" d="M 269.5,217.5 C 270.919,216.549 272.585,216.216 274.5,216.5C 277.788,216.073 280.788,216.74 283.5,218.5C 306.09,245.933 328.923,273.266 352,300.5C 352.49,301.793 352.657,303.127 352.5,304.5C 352.097,307.486 351.097,310.152 349.5,312.5C 349.649,311.448 349.483,310.448 349,309.5C 326.372,283.194 304.038,256.527 282,229.5C 277.917,225.247 273.751,221.247 269.5,217.5 Z"/></g>
<g><path style="opacity:1" fill="#6696f3" d="M 135.5,216.5 C 160.397,247.689 185.73,278.356 211.5,308.5C 210.224,312.662 208.557,316.662 206.5,320.5C 202.954,319.128 200.12,316.795 198,313.5C 172.839,282.523 147.673,251.523 122.5,220.5C 126.403,218.102 130.736,216.769 135.5,216.5 Z"/></g>
<g><path style="opacity:1" fill="#3fca8e" d="M 269.5,217.5 C 273.751,221.247 277.917,225.247 282,229.5C 304.038,256.527 326.372,283.194 349,309.5C 349.483,310.448 349.649,311.448 349.5,312.5C 348.736,315.018 347.736,317.351 346.5,319.5C 318.139,286.8 290.472,253.466 263.5,219.5C 265.214,218.262 267.214,217.595 269.5,217.5 Z"/></g>
<g><path style="opacity:1" fill="#11cabc" d="M 298.5,216.5 C 329.659,223.992 348.659,243.325 355.5,274.5C 355.5,277.833 355.5,281.167 355.5,284.5C 335.807,262.468 316.807,239.802 298.5,216.5 Z"/></g>
<g><path style="opacity:1" fill="#7371e8" d="M 171.5,220.5 C 194.112,229.446 208.112,245.779 213.5,269.5C 213.649,270.552 213.483,271.552 213,272.5C 199.609,255.372 185.442,238.205 170.5,221C 170.728,220.601 171.062,220.435 171.5,220.5 Z"/></g>
<g><path style="opacity:1" fill="#629ff5" d="M 122.5,220.5 C 147.673,251.523 172.839,282.523 198,313.5C 200.12,316.795 202.954,319.128 206.5,320.5C 205.167,322.5 203.833,324.5 202.5,326.5C 192.381,315.232 182.381,303.732 172.5,292C 172.833,291.667 173.167,291.333 173.5,291C 172.552,290.517 171.552,290.351 170.5,290.5C 168.602,287.08 166.435,283.747 164,280.5C 147.441,261.687 131.608,242.354 116.5,222.5C 118.297,221.27 120.297,220.604 122.5,220.5 Z"/></g>
<g><path style="opacity:1" fill="#4bc981" d="M 263.5,219.5 C 290.472,253.466 318.139,286.8 346.5,319.5C 345.557,322.4 343.89,324.733 341.5,326.5C 313.423,292.723 285.257,259.057 257,225.5C 256.184,224.177 255.017,223.511 253.5,223.5C 256.37,221.206 259.703,219.872 263.5,219.5 Z"/></g>
<g><path style="opacity:1" fill="#60a5f6" d="M 116.5,222.5 C 131.608,242.354 147.441,261.687 164,280.5C 166.435,283.747 168.602,287.08 170.5,290.5C 171.552,290.351 172.552,290.517 173.5,291C 173.167,291.333 172.833,291.667 172.5,292C 182.381,303.732 192.381,315.232 202.5,326.5C 201.136,328.191 199.803,329.858 198.5,331.5C 188.839,319.659 178.839,308.159 168.5,297C 168.833,296.667 169.167,296.333 169.5,296C 166.509,293.043 163.509,290.043 160.5,287C 147.534,270.223 133.367,253.057 118,235.5C 115.987,232.002 113.82,228.669 111.5,225.5C 112.965,224.263 114.632,223.263 116.5,222.5 Z"/></g>
<g><path style="opacity:1" fill="#57c875" d="M 253.5,223.5 C 255.017,223.511 256.184,224.177 257,225.5C 285.257,259.057 313.423,292.723 341.5,326.5C 340.214,329.117 338.547,331.45 336.5,333.5C 307.046,297.642 277.046,262.309 246.5,227.5C 248.663,225.917 250.996,224.584 253.5,223.5 Z"/></g>
<g><path style="opacity:1" fill="#b257f6" d="M 390.5,224.5 C 390.351,225.552 390.517,226.552 391,227.5C 412.022,253.185 433.022,278.852 454,304.5C 455.378,306.213 457.045,307.547 459,308.5C 463.639,316.964 469.805,323.964 477.5,329.5C 475.167,332.5 472.5,335.167 469.5,337.5C 466.086,335.273 462.753,332.773 459.5,330C 459.833,329.667 460.167,329.333 460.5,329C 459.151,328.228 458.318,327.061 458,325.5C 457.667,325.833 457.333,326.167 457,326.5C 456.667,325.5 456.333,324.5 456,323.5C 455.667,323.833 455.333,324.167 455,324.5C 453.991,322.975 453.491,321.308 453.5,319.5C 447.626,315.174 443.126,309.507 440,302.5C 439.086,303.654 438.253,303.487 437.5,302C 432.521,295.237 426.354,288.071 419,280.5C 418.74,278.382 417.74,276.716 416,275.5C 414.334,276.34 414.167,275.84 415.5,274C 414.448,272.881 413.281,272.381 412,272.5C 411.654,270.152 410.487,268.319 408.5,267C 408.833,266.667 409.167,266.333 409.5,266C 408.552,265.517 407.552,265.351 406.5,265.5C 403.241,261.042 400.074,256.376 397,251.5C 395.229,250.696 393.729,249.529 392.5,248C 392.833,247.667 393.167,247.333 393.5,247C 389.842,243.376 386.175,239.709 382.5,236C 382.833,235.667 383.167,235.333 383.5,235C 381.937,234.241 380.937,233.074 380.5,231.5C 383.833,229.167 387.167,226.833 390.5,224.5 Z"/></g>
<g><path style="opacity:1" fill="#64c768" d="M 246.5,227.5 C 277.046,262.309 307.046,297.642 336.5,333.5C 333.729,336.392 330.729,339.058 327.5,341.5C 326.491,340.061 326.824,338.728 328.5,337.5C 309.85,313.691 290.35,290.691 270,268.5C 261.419,256.909 252.419,245.576 243,234.5C 241.989,233.663 240.822,233.33 239.5,233.5C 241.219,230.781 243.553,228.781 246.5,227.5 Z"/></g>
<g><path style="opacity:1" fill="#707bec" d="M 155.5,216.5 C 161.17,216.917 166.503,218.251 171.5,220.5C 171.062,220.435 170.728,220.601 170.5,221C 185.442,238.205 199.609,255.372 213,272.5C 213.483,271.552 213.649,270.552 213.5,269.5C 214.167,271.167 214.833,272.833 215.5,274.5C 215.5,279.833 215.5,285.167 215.5,290.5C 214.732,291.263 214.232,292.263 214,293.5C 192.849,268.013 171.682,242.513 150.5,217C 152.134,216.506 153.801,216.34 155.5,216.5 Z"/></g>
<g><path style="opacity:1" fill="#59b7fa" d="M 103.5,231.5 C 105.233,232.008 105.566,232.841 104.5,234C 105.5,234.333 106.5,234.667 107.5,235C 106.044,235.423 105.544,236.256 106,237.5C 107.073,236.72 108.24,236.887 109.5,238C 110.636,239.53 111.636,240.863 112.5,242C 112.167,242.333 111.833,242.667 111.5,243C 112.448,243.483 113.448,243.649 114.5,243.5C 115.295,247.123 117.628,249.29 121.5,250C 120.328,250.419 119.328,251.085 118.5,252C 120.087,252.862 121.754,253.529 123.5,254C 124.337,255.011 124.67,256.178 124.5,257.5C 125.5,257.5 126.5,257.5 127.5,257.5C 127.67,258.822 127.337,259.989 126.5,261C 130.402,263.288 132.735,266.288 133.5,270C 134.469,271.758 135.636,272.258 137,271.5C 138.71,275.94 141.876,279.773 146.5,283C 145.833,283.333 145.167,283.667 144.5,284C 148.006,285.315 150.673,287.648 152.5,291C 152.167,291.333 151.833,291.667 151.5,292C 154.542,295.249 158.209,297.583 162.5,299C 161.5,299.333 160.5,299.667 159.5,300C 161.384,300.216 163.051,300.883 164.5,302C 163.833,302.333 163.167,302.667 162.5,303C 164.394,304.101 165.061,305.434 164.5,307C 165.701,307.903 166.535,309.069 167,310.5C 167.333,309.833 167.667,309.167 168,308.5C 172.057,315.894 177.557,322.061 184.5,327C 184.335,328.117 184.002,329.284 183.5,330.5C 184.628,331.262 185.795,331.929 187,332.5C 187.574,334.492 188.741,335.992 190.5,337C 189.833,337.333 189.167,337.667 188.5,338C 189.416,338.278 190.082,338.778 190.5,339.5C 188.343,341.412 186.009,343.079 183.5,344.5C 176.312,334.461 168.479,324.795 160,315.5C 159.888,312.553 158.388,311.22 155.5,311.5C 155.649,310.448 155.483,309.448 155,308.5C 136.097,284.755 116.597,261.422 96.5,238.5C 98.5,235.833 100.833,233.5 103.5,231.5 Z"/></g>
<g><path style="opacity:1" fill="#bd5bef" d="M 380.5,231.5 C 380.937,233.074 381.937,234.241 383.5,235C 383.167,235.333 382.833,235.667 382.5,236C 386.175,239.709 389.842,243.376 393.5,247C 393.167,247.333 392.833,247.667 392.5,248C 393.729,249.529 395.229,250.696 397,251.5C 400.074,256.376 403.241,261.042 406.5,265.5C 407.552,265.351 408.552,265.517 409.5,266C 409.167,266.333 408.833,266.667 408.5,267C 410.487,268.319 411.654,270.152 412,272.5C 413.281,272.381 414.448,272.881 415.5,274C 414.167,275.84 414.334,276.34 416,275.5C 417.74,276.716 418.74,278.382 419,280.5C 426.354,288.071 432.521,295.237 437.5,302C 438.253,303.487 439.086,303.654 440,302.5C 443.126,309.507 447.626,315.174 453.5,319.5C 453.491,321.308 453.991,322.975 455,324.5C 455.333,324.167 455.667,323.833 456,323.5C 456.333,324.5 456.667,325.5 457,326.5C 457.333,326.167 457.667,325.833 458,325.5C 458.318,327.061 459.151,328.228 460.5,329C 460.167,329.333 459.833,329.667 459.5,330C 462.753,332.773 466.086,335.273 469.5,337.5C 465.674,341.99 461.007,345.323 455.5,347.5C 453.549,346.718 452.049,345.384 451,343.5C 450.667,343.833 450.333,344.167 450,344.5C 449.667,343.5 449.333,342.5 449,341.5C 448.667,341.833 448.333,342.167 448,342.5C 447.333,341.5 447.333,340.5 448,339.5C 448.654,340.696 449.154,340.696 449.5,339.5C 447.659,338.77 445.825,338.103 444,337.5C 443.383,336.551 443.549,335.718 444.5,335C 442.415,333.959 440.748,332.459 439.5,330.5C 440.629,328.471 440.129,328.137 438,329.5C 437.691,328.234 437.191,327.067 436.5,326C 437.34,324.334 436.84,324.167 435,325.5C 433.887,324.24 433.72,323.073 434.5,322C 431.317,318.985 428.317,315.818 425.5,312.5C 424.359,311.575 424.359,310.741 425.5,310C 423.623,308.815 421.623,307.815 419.5,307C 420.167,306.667 420.833,306.333 421.5,306C 418.232,305.064 415.899,303.064 414.5,300C 415.167,299.667 415.833,299.333 416.5,299C 415.216,298.316 414.049,298.483 413,299.5C 411.513,298.747 411.346,297.914 412.5,297C 409.456,296.641 409.122,295.974 411.5,295C 410.747,293.513 409.914,293.346 409,294.5C 408.535,293.069 407.701,291.903 406.5,291C 406.957,290.586 407.291,290.086 407.5,289.5C 405.484,286.898 403.317,285.231 401,284.5C 400.122,281.785 398.622,279.451 396.5,277.5C 396.709,276.914 397.043,276.414 397.5,276C 394.858,273.794 392.358,271.961 390,270.5C 389.214,267.417 387.381,265.251 384.5,264C 385.345,262.442 384.679,261.442 382.5,261C 382.833,260.667 383.167,260.333 383.5,260C 382.354,259.355 381.354,258.522 380.5,257.5C 379.914,257.709 379.414,258.043 379,258.5C 378.689,257.258 379.189,256.258 380.5,255.5C 378.31,254.777 376.31,253.61 374.5,252C 375.167,251.333 375.833,250.667 376.5,250C 374.423,247.337 372.757,244.504 371.5,241.5C 373.766,237.564 376.766,234.231 380.5,231.5 Z"/></g>
<g><path style="opacity:1" fill="#56befb" d="M 96.5,238.5 C 116.597,261.422 136.097,284.755 155,308.5C 155.483,309.448 155.649,310.448 155.5,311.5C 158.388,311.22 159.888,312.553 160,315.5C 168.479,324.795 176.312,334.461 183.5,344.5C 182.035,345.737 180.368,346.737 178.5,347.5C 150.883,312.907 122.383,278.24 93,243.5C 92.6174,244.056 92.1174,244.389 91.5,244.5C 92.4194,241.911 94.086,239.911 96.5,238.5 Z"/></g>
<g><path style="opacity:1" fill="#54c4fd" d="M 178.5,347.5 C 176.95,348.441 175.284,349.107 173.5,349.5C 148.566,319.825 123.566,289.491 98.5,258.5C 95.16,255.133 91.8267,251.8 88.5,248.5C 89.0256,246.77 90.0256,245.436 91.5,244.5C 92.1174,244.389 92.6174,244.056 93,243.5C 122.383,278.24 150.883,312.907 178.5,347.5 Z"/></g>
<g><path style="opacity:1" fill="#c55ee9" d="M 371.5,241.5 C 372.757,244.504 374.423,247.337 376.5,250C 375.833,250.667 375.167,251.333 374.5,252C 376.31,253.61 378.31,254.777 380.5,255.5C 379.189,256.258 378.689,257.258 379,258.5C 379.414,258.043 379.914,257.709 380.5,257.5C 381.354,258.522 382.354,259.355 383.5,260C 383.167,260.333 382.833,260.667 382.5,261C 384.679,261.442 385.345,262.442 384.5,264C 387.381,265.251 389.214,267.417 390,270.5C 392.358,271.961 394.858,273.794 397.5,276C 397.043,276.414 396.709,276.914 396.5,277.5C 398.622,279.451 400.122,281.785 401,284.5C 403.317,285.231 405.484,286.898 407.5,289.5C 407.291,290.086 406.957,290.586 406.5,291C 407.701,291.903 408.535,293.069 409,294.5C 409.914,293.346 410.747,293.513 411.5,295C 409.122,295.974 409.456,296.641 412.5,297C 411.346,297.914 411.513,298.747 413,299.5C 414.049,298.483 415.216,298.316 416.5,299C 415.833,299.333 415.167,299.667 414.5,300C 415.899,303.064 418.232,305.064 421.5,306C 420.833,306.333 420.167,306.667 419.5,307C 421.623,307.815 423.623,308.815 425.5,310C 424.359,310.741 424.359,311.575 425.5,312.5C 428.317,315.818 431.317,318.985 434.5,322C 433.72,323.073 433.887,324.24 435,325.5C 436.84,324.167 437.34,324.334 436.5,326C 437.191,327.067 437.691,328.234 438,329.5C 440.129,328.137 440.629,328.471 439.5,330.5C 440.748,332.459 442.415,333.959 444.5,335C 443.549,335.718 443.383,336.551 444,337.5C 445.825,338.103 447.659,338.77 449.5,339.5C 449.154,340.696 448.654,340.696 448,339.5C 447.333,340.5 447.333,341.5 448,342.5C 448.333,342.167 448.667,341.833 449,341.5C 449.333,342.5 449.667,343.5 450,344.5C 450.333,344.167 450.667,343.833 451,343.5C 452.049,345.384 453.549,346.718 455.5,347.5C 452.912,349.592 449.912,350.925 446.5,351.5C 440.622,346.178 435.955,340.345 432.5,334C 430.548,332.608 428.548,331.275 426.5,330C 426.833,329.667 427.167,329.333 427.5,329C 425.251,327.255 423.584,325.088 422.5,322.5C 420.324,320.823 418.324,318.989 416.5,317C 416.5,316 416.5,315 416.5,314C 413.163,310.546 409.497,307.379 405.5,304.5C 405.709,303.914 406.043,303.414 406.5,303C 403.272,298.857 399.938,295.524 396.5,293C 396.833,292.667 397.167,292.333 397.5,292C 393.905,290.236 391.572,287.402 390.5,283.5C 387.525,280.97 384.692,277.636 382,273.5C 381.667,274.167 381.333,274.833 381,275.5C 380.316,274.216 380.483,273.049 381.5,272C 380.234,271.691 379.067,271.191 378,270.5C 374.703,265.372 370.87,260.706 366.5,256.5C 365.438,254.978 364.771,253.312 364.5,251.5C 366.062,247.608 368.395,244.275 371.5,241.5 Z"/></g>
<g><path style="opacity:1" fill="#51cafd" d="M 88.5,248.5 C 91.8267,251.8 95.16,255.133 98.5,258.5C 123.566,289.491 148.566,319.825 173.5,349.5C 135.009,362.944 105.509,351.944 85,316.5C 77.133,297.423 76.4663,278.089 83,258.5C 84.5918,254.979 86.4251,251.646 88.5,248.5 Z"/></g>
<g><path style="opacity:1" fill="#5dadf8" d="M 111.5,225.5 C 113.82,228.669 115.987,232.002 118,235.5C 133.367,253.057 147.534,270.223 160.5,287C 163.509,290.043 166.509,293.043 169.5,296C 169.167,296.333 168.833,296.667 168.5,297C 178.839,308.159 188.839,319.659 198.5,331.5C 196.167,334.5 193.5,337.167 190.5,339.5C 190.082,338.778 189.416,338.278 188.5,338C 189.167,337.667 189.833,337.333 190.5,337C 188.741,335.992 187.574,334.492 187,332.5C 185.795,331.929 184.628,331.262 183.5,330.5C 184.002,329.284 184.335,328.117 184.5,327C 177.557,322.061 172.057,315.894 168,308.5C 167.667,309.167 167.333,309.833 167,310.5C 166.535,309.069 165.701,307.903 164.5,307C 165.061,305.434 164.394,304.101 162.5,303C 163.167,302.667 163.833,302.333 164.5,302C 163.051,300.883 161.384,300.216 159.5,300C 160.5,299.667 161.5,299.333 162.5,299C 158.209,297.583 154.542,295.249 151.5,292C 151.833,291.667 152.167,291.333 152.5,291C 150.673,287.648 148.006,285.315 144.5,284C 145.167,283.667 145.833,283.333 146.5,283C 141.876,279.773 138.71,275.94 137,271.5C 135.636,272.258 134.469,271.758 133.5,270C 132.735,266.288 130.402,263.288 126.5,261C 127.337,259.989 127.67,258.822 127.5,257.5C 126.5,257.5 125.5,257.5 124.5,257.5C 124.67,256.178 124.337,255.011 123.5,254C 121.754,253.529 120.087,252.862 118.5,252C 119.328,251.085 120.328,250.419 121.5,250C 117.628,249.29 115.295,247.123 114.5,243.5C 113.448,243.649 112.448,243.483 111.5,243C 111.833,242.667 112.167,242.333 112.5,242C 111.636,240.863 110.636,239.53 109.5,238C 108.24,236.887 107.073,236.72 106,237.5C 105.544,236.256 106.044,235.423 107.5,235C 106.5,234.667 105.5,234.333 104.5,234C 105.566,232.841 105.233,232.008 103.5,231.5C 105.86,229.147 108.527,227.147 111.5,225.5 Z"/></g>
<g><path style="opacity:1" fill="#8bc540" d="M 228.5,245.5 C 231.188,247.132 233.688,249.132 236,251.5C 260.623,281.792 285.623,311.792 311,341.5C 312.454,344.071 313.62,346.738 314.5,349.5C 281.359,362.057 253.193,355.057 230,328.5C 222.921,318.408 218.087,307.408 215.5,295.5C 215.5,293.833 215.5,292.167 215.5,290.5C 215.5,285.167 215.5,279.833 215.5,274.5C 217.706,263.884 222.039,254.217 228.5,245.5 Z"/></g>
<g><path style="opacity:1" fill="#7bc651" d="M 233.5,238.5 C 235.09,238.628 236.423,239.295 237.5,240.5C 254.693,263.204 272.86,285.204 292,306.5C 298.913,316.021 306.913,325.354 316,334.5C 318.03,338.009 320.196,341.342 322.5,344.5C 320.206,346.653 317.54,348.32 314.5,349.5C 313.62,346.738 312.454,344.071 311,341.5C 285.623,311.792 260.623,281.792 236,251.5C 233.688,249.132 231.188,247.132 228.5,245.5C 229.754,242.907 231.42,240.573 233.5,238.5 Z"/></g>
<g><path style="opacity:1" fill="#cf62e3" d="M 364.5,251.5 C 364.771,253.312 365.438,254.978 366.5,256.5C 370.87,260.706 374.703,265.372 378,270.5C 379.067,271.191 380.234,271.691 381.5,272C 380.483,273.049 380.316,274.216 381,275.5C 381.333,274.833 381.667,274.167 382,273.5C 384.692,277.636 387.525,280.97 390.5,283.5C 391.572,287.402 393.905,290.236 397.5,292C 397.167,292.333 396.833,292.667 396.5,293C 399.938,295.524 403.272,298.857 406.5,303C 406.043,303.414 405.709,303.914 405.5,304.5C 409.497,307.379 413.163,310.546 416.5,314C 416.5,315 416.5,316 416.5,317C 418.324,318.989 420.324,320.823 422.5,322.5C 423.584,325.088 425.251,327.255 427.5,329C 427.167,329.333 426.833,329.667 426.5,330C 428.548,331.275 430.548,332.608 432.5,334C 435.955,340.345 440.622,346.178 446.5,351.5C 441.421,353.57 436.087,354.57 430.5,354.5C 429.325,354.719 428.325,354.386 427.5,353.5C 416.832,340.328 406.332,326.995 396,313.5C 394.5,312.333 393,311.167 391.5,310C 390.257,306.38 387.591,303.38 383.5,301C 384.167,300.667 384.833,300.333 385.5,300C 384.376,299.751 383.376,299.251 382.5,298.5C 377.667,292.167 372.833,285.833 368,279.5C 365.054,277.738 362.721,275.071 361,271.5C 360.333,270.167 359.667,270.167 359,271.5C 358.505,269.527 358.338,267.527 358.5,265.5C 359.432,260.311 361.432,255.644 364.5,251.5 Z"/></g>
<g><path style="opacity:1" fill="#6ec75e" d="M 239.5,233.5 C 240.822,233.33 241.989,233.663 243,234.5C 252.419,245.576 261.419,256.909 270,268.5C 290.35,290.691 309.85,313.691 328.5,337.5C 326.824,338.728 326.491,340.061 327.5,341.5C 325.999,342.752 324.332,343.752 322.5,344.5C 320.196,341.342 318.03,338.009 316,334.5C 306.913,325.354 298.913,316.021 292,306.5C 272.86,285.204 254.693,263.204 237.5,240.5C 236.423,239.295 235.09,238.628 233.5,238.5C 234.911,236.086 236.911,234.419 239.5,233.5 Z"/></g>
<g><path style="opacity:1" fill="#da66db" d="M 358.5,265.5 C 358.338,267.527 358.505,269.527 359,271.5C 359.667,270.167 360.333,270.167 361,271.5C 362.721,275.071 365.054,277.738 368,279.5C 372.833,285.833 377.667,292.167 382.5,298.5C 383.376,299.251 384.376,299.751 385.5,300C 384.833,300.333 384.167,300.667 383.5,301C 387.591,303.38 390.257,306.38 391.5,310C 393,311.167 394.5,312.333 396,313.5C 406.332,326.995 416.832,340.328 427.5,353.5C 428.325,354.386 429.325,354.719 430.5,354.5C 422.864,355.935 415.198,355.602 407.5,353.5C 405.491,350.646 403.657,347.646 402,344.5C 401.667,344.833 401.333,345.167 401,345.5C 399.859,343.391 398.359,341.558 396.5,340C 396.833,339.667 397.167,339.333 397.5,339C 396.552,338.517 395.552,338.351 394.5,338.5C 394.719,337.325 394.386,336.325 393.5,335.5C 380.131,320.216 367.464,304.549 355.5,288.5C 355.5,287.167 355.5,285.833 355.5,284.5C 355.5,281.167 355.5,277.833 355.5,274.5C 356.374,271.465 357.374,268.465 358.5,265.5 Z"/></g>
<g><path style="opacity:1" fill="#e169d4" d="M 355.5,288.5 C 367.464,304.549 380.131,320.216 393.5,335.5C 394.386,336.325 394.719,337.325 394.5,338.5C 395.552,338.351 396.552,338.517 397.5,339C 397.167,339.333 396.833,339.667 396.5,340C 398.359,341.558 399.859,343.391 401,345.5C 401.333,345.167 401.667,344.833 402,344.5C 403.657,347.646 405.491,350.646 407.5,353.5C 377.693,344.357 360.36,324.357 355.5,293.5C 355.5,291.833 355.5,290.167 355.5,288.5 Z"/></g>
</svg>
